<svg width="500" height="500" viewBox="0 0 500 500" fill="none" xmlns="http://www.w3.org/2000/svg">
<g clip-path="url(#clip0)">
<rect width="500" height="500" fill="white"/>
<path d="M353.306 263.546C358.405 265.397 360.337 259.755 360.337 259.755C360.337 259.755 393.778 168.787 396.504 164.176C400.356 157.712 409.604 146.199 426.866 153.419C434.058 156.411 447.085 164.346 439.831 189.218C438.254 194.592 385.925 335.769 382.687 343.575C382.687 343.575 356.989 405.233 337.241 432.748C331.772 440.374 325.489 448.66 317.208 456.118C308.959 463.562 299.014 470.518 287.497 475.445C276.036 480.505 263.139 483.398 250.083 484.089C237.013 484.747 223.898 483.193 211.345 480.301C208.231 479.519 205.083 478.751 202.045 477.78L193.359 475.231C187.291 473.403 181.436 471.248 175.718 468.957C164.249 464.388 153.334 458.916 143.194 452.878C133.074 446.793 123.785 439.999 115.603 432.771C107.422 425.543 100.516 417.73 95.0147 409.904C89.4281 402.153 85.4298 394.271 82.6978 387.061C79.7341 379.95 78.5663 373.284 77.6576 367.956C76.9143 362.558 76.7942 358.342 76.9001 355.477C76.9729 352.627 77.0307 351.115 77.0307 351.115C76.7267 346.194 76.4415 341.5 76.1607 337.274C75.3698 325.357 74.6035 311.942 73.8611 298.126C73.5483 292.269 73.4319 289.617 73.4319 289.617L73.4413 289.731C70.8467 239.275 68.8773 186.987 68.8773 186.987C68.1081 177.958 76.5641 171.091 85.8271 173.158C112.567 179.103 127.997 197.874 130.565 223.83L133.755 282.449C133.561 289.227 143.58 292.694 146.727 286.688C156.623 267.811 174.163 219.941 174.163 219.941C182.637 200.028 228.139 82.2484 231.401 74.8627C237.976 60.0298 249.507 48.9106 263.298 52.134C277.391 55.4237 285.58 66.3291 280.912 84.0655C279.642 88.8765 234.752 210.466 234.752 210.466C232.124 217.502 240.78 222.178 243.961 215.062C243.961 215.062 300.39 65.1619 302.866 58.2294C308.45 42.4505 324.135 32.8042 338.056 37.8899C351.647 42.8432 357.801 57.8689 352.222 74.1157C350.432 79.2667 311.068 185.767 295.62 229.102C294.592 232.008 294.292 235.425 298.257 236.822C298.304 236.841 302.515 238.72 304.523 233.163C308.766 221.481 352.002 106.825 354.454 100.568C360.084 86.1789 371.402 75.6599 386.378 80.9213C400.011 85.6997 408.297 100.675 401.773 116.543L350.011 256.851C350.011 256.851 348.491 261.808 353.306 263.546Z" fill="#FAC036"/>
<path d="M175.861 67.5291C175.861 67.5291 157.878 78.6675 148.227 105.348C138.59 132.062 140.841 160.112 140.841 160.112" stroke="#444444" stroke-width="4" stroke-miterlimit="10" stroke-linecap="round"/>
<path d="M119.509 65.4028C119.509 65.4028 106.86 80.4066 102.981 105.754C99.1028 131.101 106.002 155.557 106.002 155.557" stroke="#444444" stroke-width="4" stroke-miterlimit="10" stroke-linecap="round"/>
<path d="M409.442 361.216C409.442 361.216 429.388 354.21 444.525 330.194C459.662 306.178 463.514 278.297 463.514 278.297" stroke="#444444" stroke-width="4" stroke-miterlimit="10" stroke-linecap="round"/>
<path d="M437.194 387.831C437.194 387.831 455.524 380.89 471.292 360.637C487.06 340.384 492.933 315.672 492.933 315.672" stroke="#444444" stroke-width="4" stroke-miterlimit="10" stroke-linecap="round"/>
<path d="M300.372 407.71C304.44 401.987 301.94 399.821 301.94 399.821C301.94 399.821 297.656 397.922 291.94 401.517C286.224 405.112 239.44 439.321 171.885 401.517C171.885 401.517 162.954 396.374 160.938 401.987C160.938 401.987 160.237 407.71 168.44 415.321C205.365 449.581 263.692 459.321 300.372 407.71Z" fill="#E48C15"/>
<circle cx="127.477" cy="380.477" r="22.4767" fill="#FF5BAA" fill-opacity="0.47"/>
<circle cx="333.477" cy="383.477" r="22.4767" fill="#FF5BAA" fill-opacity="0.47"/>
<circle cx="148.948" cy="357.966" r="22.4767" fill="#142627"/>
<circle r="11.4395" transform="matrix(0.434311 -0.900763 -0.900763 -0.434311 144.272 349.272)" fill="#FFF4F4"/>
<path d="M336.253 357.966C336.253 370.38 326.19 380.443 313.777 380.443C301.363 380.443 291.3 370.38 291.3 357.966C291.3 345.553 301.363 335.49 313.777 335.49C326.19 335.49 336.253 345.553 336.253 357.966Z" fill="#142627"/>
<circle r="11.4395" transform="matrix(0.434311 -0.900763 -0.900763 -0.434311 310.272 350.272)" fill="#FFF4F4"/>
</g>
<defs>
<clipPath id="clip0">
<rect width="500" height="500" fill="white"/>
</clipPath>
</defs>
</svg>
