<svg width="557" height="571" fill="none" xmlns="http://www.w3.org/2000/svg"><path d="M381.306 298.546c5.099 1.851 7.031-3.791 7.031-3.791s33.441-90.968 36.167-95.579c3.852-6.464 13.1-17.977 30.362-10.757 7.192 2.992 20.219 10.927 12.965 35.799-1.577 5.374-53.906 146.551-57.144 154.357 0 0-25.698 61.658-45.446 89.173-5.469 7.626-11.752 15.912-20.033 23.37-8.249 7.444-18.194 14.4-29.711 19.327-11.461 5.059-24.358 7.953-37.414 8.644-13.07.658-26.185-.897-38.738-3.788-3.114-.782-6.262-1.55-9.3-2.521l-8.686-2.549c-6.068-1.828-11.923-3.983-17.641-6.274-11.469-4.569-22.384-10.041-32.524-16.079-10.12-6.085-19.409-12.879-27.591-20.107-8.181-7.228-15.087-15.041-20.588-22.867-5.587-7.751-9.585-15.633-12.317-22.844-2.964-7.111-4.132-13.776-5.04-19.104-.744-5.398-.864-9.615-.758-12.479.073-2.85.131-4.363.131-4.363-.304-4.92-.59-9.614-.87-13.84-.791-11.917-1.558-25.332-2.3-39.149-.313-5.856-.429-8.508-.429-8.508l.009.113c-2.5943-50.455-4.5637-102.743-4.5637-102.743-.7692-9.029 7.6867-15.896 16.9497-13.829 26.74 5.945 42.17 24.716 44.738 50.672l3.19 58.619c-.194 6.778 9.825 10.244 12.972 4.239 9.896-18.877 27.436-66.747 27.436-66.747 8.474-19.913 53.976-137.693 57.238-145.078 6.575-14.8334 18.106-25.9525 31.897-22.7291 14.093 3.2897 22.282 14.1951 17.614 31.9311-1.27 4.811-46.16 126.401-46.16 126.401-2.628 7.036 6.028 11.712 9.209 4.596 0 0 56.429-149.9 58.905-156.8327 5.584-15.7789 21.269-25.4253 35.19-20.3395 13.591 4.9532 19.745 19.9789 14.166 36.2262-1.79 5.151-41.154 111.651-56.602 154.985-1.028 2.907-1.328 6.324 2.637 7.721.047.019 4.258 1.898 6.266-3.659 4.243-11.682 47.479-126.338 49.931-132.595 5.63-14.389 16.948-24.908 31.924-19.647 13.633 4.779 21.919 19.754 15.395 35.622L378.011 291.85s-1.52 4.958 3.295 6.696z" fill="#FAC036"/><path d="M203.861 102.529s-17.983 11.139-27.634 37.819c-9.637 26.714-7.386 54.764-7.386 54.764M147.509 100.403s-12.649 15.003-16.528 40.35c-3.878 25.347 3.021 49.803 3.021 49.803M437.442 396.216s19.946-7.006 35.083-31.022c15.137-24.016 18.989-51.897 18.989-51.897M465.194 422.831s18.33-6.941 34.098-27.194 21.641-44.965 21.641-44.965" stroke="#444" stroke-width="4" stroke-miterlimit="10" stroke-linecap="round"/><path d="M328.372 442.71c4.068-5.723 1.568-7.889 1.568-7.889s-4.284-1.899-10 1.696c-5.716 3.595-52.5 37.804-120.055 0 0 0-8.931-5.143-10.947.47 0 0-.701 5.723 7.502 13.334 36.925 34.26 95.252 44 131.932-7.611z" fill="#E48C15"/><circle cx="155.477" cy="415.477" r="22.4767" fill="#FF5BAA" fill-opacity=".47"/><circle cx="361.477" cy="418.477" r="22.4767" fill="#FF5BAA" fill-opacity=".47"/><circle cx="176.948" cy="392.966" r="22.4767" fill="#142627"/><circle r="11.4395" transform="scale(1 -1) rotate(64.25854 392.0797123 -54.97915173)" fill="#FFF4F4"/><path d="M364.253 392.966c0 12.414-10.063 22.477-22.476 22.477-12.414 0-22.477-10.063-22.477-22.477 0-12.413 10.063-22.476 22.477-22.476 12.413 0 22.476 10.063 22.476 22.476z" fill="#142627"/><circle r="11.4395" transform="scale(1 -1) rotate(64.25854 475.87587566 76.6841504)" fill="#FFF4F4"/></svg>